<mxfile host="app.diagrams.net" modified="2023-07-26T12:19:16.264Z" agent="Mozilla/5.0 (Windows NT 10.0; Win64; x64) AppleWebKit/537.36 (KHTML, like Gecko) Chrome/115.0.0.0 Safari/537.36 Edg/115.0.1901.183" etag="EJ_znV3ewIYOt2b1lwnA" version="21.6.5" type="github">
  <diagram name="第 1 页" id="JLhz8HHB5CEnSAMPtOcy">
    <mxGraphModel dx="1379" dy="788" grid="1" gridSize="10" guides="1" tooltips="1" connect="1" arrows="1" fold="1" page="1" pageScale="1" pageWidth="2827" pageHeight="1169" math="0" shadow="0">
      <root>
        <mxCell id="0" />
        <mxCell id="1" parent="0" />
        <mxCell id="QbVw48FyHrgcOZFmDnED-11" style="rounded=0;orthogonalLoop=1;jettySize=auto;html=1;exitX=1;exitY=0;exitDx=0;exitDy=0;entryX=0;entryY=0.5;entryDx=0;entryDy=0;" edge="1" parent="1" source="QbVw48FyHrgcOZFmDnED-1" target="QbVw48FyHrgcOZFmDnED-2">
          <mxGeometry relative="1" as="geometry" />
        </mxCell>
        <mxCell id="QbVw48FyHrgcOZFmDnED-12" value="1、请求a.zbn.com" style="edgeLabel;html=1;align=center;verticalAlign=middle;resizable=0;points=[];" vertex="1" connectable="0" parent="QbVw48FyHrgcOZFmDnED-11">
          <mxGeometry x="-0.1627" y="-2" relative="1" as="geometry">
            <mxPoint x="14" y="-3" as="offset" />
          </mxGeometry>
        </mxCell>
        <mxCell id="QbVw48FyHrgcOZFmDnED-17" style="rounded=0;orthogonalLoop=1;jettySize=auto;html=1;exitX=0.963;exitY=0.363;exitDx=0;exitDy=0;entryX=0.375;entryY=0.025;entryDx=0;entryDy=0;exitPerimeter=0;entryPerimeter=0;" edge="1" parent="1" source="QbVw48FyHrgcOZFmDnED-1" target="QbVw48FyHrgcOZFmDnED-3">
          <mxGeometry relative="1" as="geometry" />
        </mxCell>
        <mxCell id="QbVw48FyHrgcOZFmDnED-18" value="4、请求a.zbn.com" style="edgeLabel;html=1;align=center;verticalAlign=middle;resizable=0;points=[];" vertex="1" connectable="0" parent="QbVw48FyHrgcOZFmDnED-17">
          <mxGeometry x="-0.236" y="-2" relative="1" as="geometry">
            <mxPoint x="23" as="offset" />
          </mxGeometry>
        </mxCell>
        <mxCell id="QbVw48FyHrgcOZFmDnED-1" value="源" style="ellipse;whiteSpace=wrap;html=1;aspect=fixed;" vertex="1" parent="1">
          <mxGeometry x="90" y="340" width="80" height="80" as="geometry" />
        </mxCell>
        <mxCell id="QbVw48FyHrgcOZFmDnED-9" style="edgeStyle=orthogonalEdgeStyle;rounded=0;orthogonalLoop=1;jettySize=auto;html=1;exitX=1;exitY=0.5;exitDx=0;exitDy=0;entryX=0.1;entryY=0.5;entryDx=0;entryDy=0;entryPerimeter=0;" edge="1" parent="1" source="QbVw48FyHrgcOZFmDnED-2" target="QbVw48FyHrgcOZFmDnED-4">
          <mxGeometry relative="1" as="geometry" />
        </mxCell>
        <mxCell id="QbVw48FyHrgcOZFmDnED-2" value="F1&lt;br&gt;（FDNS）" style="ellipse;whiteSpace=wrap;html=1;aspect=fixed;" vertex="1" parent="1">
          <mxGeometry x="270" y="240" width="80" height="80" as="geometry" />
        </mxCell>
        <mxCell id="QbVw48FyHrgcOZFmDnED-19" style="rounded=0;orthogonalLoop=1;jettySize=auto;html=1;exitX=1;exitY=0;exitDx=0;exitDy=0;entryX=0.75;entryY=1;entryDx=0;entryDy=0;dashed=1;" edge="1" parent="1" source="QbVw48FyHrgcOZFmDnED-3" target="QbVw48FyHrgcOZFmDnED-4">
          <mxGeometry relative="1" as="geometry" />
        </mxCell>
        <mxCell id="QbVw48FyHrgcOZFmDnED-20" value="5、F2与F1共用RDNS1" style="edgeLabel;html=1;align=center;verticalAlign=middle;resizable=0;points=[];" vertex="1" connectable="0" parent="QbVw48FyHrgcOZFmDnED-19">
          <mxGeometry x="0.0269" y="-4" relative="1" as="geometry">
            <mxPoint x="-51" y="-22" as="offset" />
          </mxGeometry>
        </mxCell>
        <mxCell id="QbVw48FyHrgcOZFmDnED-23" style="rounded=0;orthogonalLoop=1;jettySize=auto;html=1;exitX=-0.025;exitY=0.3;exitDx=0;exitDy=0;dashed=1;exitPerimeter=0;" edge="1" parent="1" source="QbVw48FyHrgcOZFmDnED-3" target="QbVw48FyHrgcOZFmDnED-1">
          <mxGeometry relative="1" as="geometry" />
        </mxCell>
        <mxCell id="QbVw48FyHrgcOZFmDnED-24" value="7、返回记录1，来自RDNS1i" style="edgeLabel;html=1;align=center;verticalAlign=middle;resizable=0;points=[];" vertex="1" connectable="0" parent="QbVw48FyHrgcOZFmDnED-23">
          <mxGeometry x="0.4095" y="-1" relative="1" as="geometry">
            <mxPoint x="4" y="26" as="offset" />
          </mxGeometry>
        </mxCell>
        <mxCell id="QbVw48FyHrgcOZFmDnED-3" value="F2&lt;br&gt;（FDNS）" style="ellipse;whiteSpace=wrap;html=1;aspect=fixed;" vertex="1" parent="1">
          <mxGeometry x="290" y="430" width="80" height="80" as="geometry" />
        </mxCell>
        <mxCell id="QbVw48FyHrgcOZFmDnED-21" style="rounded=0;orthogonalLoop=1;jettySize=auto;html=1;entryX=0.975;entryY=0.225;entryDx=0;entryDy=0;entryPerimeter=0;dashed=1;" edge="1" parent="1" target="QbVw48FyHrgcOZFmDnED-3">
          <mxGeometry relative="1" as="geometry">
            <mxPoint x="430" y="340" as="sourcePoint" />
          </mxGeometry>
        </mxCell>
        <mxCell id="QbVw48FyHrgcOZFmDnED-22" value="6、RDNS1直接从缓存返回记录1" style="edgeLabel;html=1;align=center;verticalAlign=middle;resizable=0;points=[];" vertex="1" connectable="0" parent="QbVw48FyHrgcOZFmDnED-21">
          <mxGeometry x="0.0057" y="3" relative="1" as="geometry">
            <mxPoint x="69" y="4" as="offset" />
          </mxGeometry>
        </mxCell>
        <mxCell id="QbVw48FyHrgcOZFmDnED-4" value="" style="shape=curlyBracket;whiteSpace=wrap;html=1;rounded=1;labelPosition=left;verticalLabelPosition=middle;align=right;verticalAlign=middle;" vertex="1" parent="1">
          <mxGeometry x="400" y="220" width="20" height="120" as="geometry" />
        </mxCell>
        <mxCell id="QbVw48FyHrgcOZFmDnED-10" style="rounded=0;orthogonalLoop=1;jettySize=auto;html=1;exitX=0.5;exitY=0.667;exitDx=0;exitDy=0;exitPerimeter=0;entryX=0;entryY=0.5;entryDx=0;entryDy=0;" edge="1" parent="1" source="QbVw48FyHrgcOZFmDnED-5" target="QbVw48FyHrgcOZFmDnED-8">
          <mxGeometry relative="1" as="geometry" />
        </mxCell>
        <mxCell id="QbVw48FyHrgcOZFmDnED-5" value="" style="shape=curlyBracket;whiteSpace=wrap;html=1;rounded=1;flipH=1;labelPosition=right;verticalLabelPosition=middle;align=left;verticalAlign=middle;" vertex="1" parent="1">
          <mxGeometry x="495" y="220" width="20" height="120" as="geometry" />
        </mxCell>
        <mxCell id="QbVw48FyHrgcOZFmDnED-6" value="+" style="text;html=1;align=center;verticalAlign=middle;resizable=0;points=[];autosize=1;strokeColor=none;fillColor=none;" vertex="1" parent="1">
          <mxGeometry x="496" y="209" width="30" height="30" as="geometry" />
        </mxCell>
        <mxCell id="QbVw48FyHrgcOZFmDnED-7" value="RDNS1i" style="ellipse;whiteSpace=wrap;html=1;aspect=fixed;" vertex="1" parent="1">
          <mxGeometry x="420" y="240" width="80" height="80" as="geometry" />
        </mxCell>
        <mxCell id="QbVw48FyHrgcOZFmDnED-13" style="rounded=0;orthogonalLoop=1;jettySize=auto;html=1;exitX=0;exitY=0;exitDx=0;exitDy=0;entryX=0.6;entryY=0.308;entryDx=0;entryDy=0;entryPerimeter=0;" edge="1" parent="1" source="QbVw48FyHrgcOZFmDnED-8" target="QbVw48FyHrgcOZFmDnED-5">
          <mxGeometry relative="1" as="geometry">
            <mxPoint x="590" y="270" as="targetPoint" />
          </mxGeometry>
        </mxCell>
        <mxCell id="QbVw48FyHrgcOZFmDnED-14" value="2、返回特定记录1" style="edgeLabel;html=1;align=center;verticalAlign=middle;resizable=0;points=[];" vertex="1" connectable="0" parent="QbVw48FyHrgcOZFmDnED-13">
          <mxGeometry x="-0.0677" y="1" relative="1" as="geometry">
            <mxPoint as="offset" />
          </mxGeometry>
        </mxCell>
        <mxCell id="QbVw48FyHrgcOZFmDnED-8" value="ADNS" style="ellipse;whiteSpace=wrap;html=1;aspect=fixed;" vertex="1" parent="1">
          <mxGeometry x="610" y="300" width="80" height="80" as="geometry" />
        </mxCell>
        <mxCell id="QbVw48FyHrgcOZFmDnED-15" value="缓存&lt;br&gt;特定记录1" style="rounded=0;whiteSpace=wrap;html=1;" vertex="1" parent="1">
          <mxGeometry x="421" y="230" width="75" height="40" as="geometry" />
        </mxCell>
        <mxCell id="QbVw48FyHrgcOZFmDnED-16" value="3、路径上的RDNSi缓存中均有记录1" style="text;html=1;align=center;verticalAlign=middle;resizable=0;points=[];autosize=1;strokeColor=none;fillColor=none;" vertex="1" parent="1">
          <mxGeometry x="430" y="190" width="220" height="30" as="geometry" />
        </mxCell>
        <mxCell id="QbVw48FyHrgcOZFmDnED-27" style="rounded=0;orthogonalLoop=1;jettySize=auto;html=1;exitX=1;exitY=0;exitDx=0;exitDy=0;entryX=0;entryY=0.5;entryDx=0;entryDy=0;" edge="1" parent="1" source="QbVw48FyHrgcOZFmDnED-31" target="QbVw48FyHrgcOZFmDnED-33">
          <mxGeometry relative="1" as="geometry" />
        </mxCell>
        <mxCell id="QbVw48FyHrgcOZFmDnED-28" value="1、请求a.zbn.com" style="edgeLabel;html=1;align=center;verticalAlign=middle;resizable=0;points=[];" vertex="1" connectable="0" parent="QbVw48FyHrgcOZFmDnED-27">
          <mxGeometry x="-0.1627" y="-2" relative="1" as="geometry">
            <mxPoint x="14" y="-3" as="offset" />
          </mxGeometry>
        </mxCell>
        <mxCell id="QbVw48FyHrgcOZFmDnED-29" style="rounded=0;orthogonalLoop=1;jettySize=auto;html=1;exitX=0.963;exitY=0.363;exitDx=0;exitDy=0;entryX=0.375;entryY=0.025;entryDx=0;entryDy=0;exitPerimeter=0;entryPerimeter=0;" edge="1" parent="1" source="QbVw48FyHrgcOZFmDnED-31" target="QbVw48FyHrgcOZFmDnED-40">
          <mxGeometry relative="1" as="geometry" />
        </mxCell>
        <mxCell id="QbVw48FyHrgcOZFmDnED-30" value="4、请求a.zbn.com" style="edgeLabel;html=1;align=center;verticalAlign=middle;resizable=0;points=[];" vertex="1" connectable="0" parent="QbVw48FyHrgcOZFmDnED-29">
          <mxGeometry x="-0.236" y="-2" relative="1" as="geometry">
            <mxPoint x="23" as="offset" />
          </mxGeometry>
        </mxCell>
        <mxCell id="QbVw48FyHrgcOZFmDnED-31" value="源" style="ellipse;whiteSpace=wrap;html=1;aspect=fixed;" vertex="1" parent="1">
          <mxGeometry x="760" y="340" width="80" height="80" as="geometry" />
        </mxCell>
        <mxCell id="QbVw48FyHrgcOZFmDnED-32" style="edgeStyle=orthogonalEdgeStyle;rounded=0;orthogonalLoop=1;jettySize=auto;html=1;exitX=1;exitY=0.5;exitDx=0;exitDy=0;entryX=0.1;entryY=0.5;entryDx=0;entryDy=0;entryPerimeter=0;" edge="1" parent="1" source="QbVw48FyHrgcOZFmDnED-33" target="QbVw48FyHrgcOZFmDnED-43">
          <mxGeometry relative="1" as="geometry" />
        </mxCell>
        <mxCell id="QbVw48FyHrgcOZFmDnED-33" value="F1&lt;br&gt;（FDNS）" style="ellipse;whiteSpace=wrap;html=1;aspect=fixed;" vertex="1" parent="1">
          <mxGeometry x="940" y="240" width="80" height="80" as="geometry" />
        </mxCell>
        <mxCell id="QbVw48FyHrgcOZFmDnED-38" style="edgeStyle=orthogonalEdgeStyle;rounded=0;orthogonalLoop=1;jettySize=auto;html=1;exitX=1;exitY=0.5;exitDx=0;exitDy=0;entryX=0.5;entryY=1;entryDx=0;entryDy=0;curved=1;dashed=1;" edge="1" parent="1" source="QbVw48FyHrgcOZFmDnED-40" target="QbVw48FyHrgcOZFmDnED-50">
          <mxGeometry relative="1" as="geometry" />
        </mxCell>
        <mxCell id="QbVw48FyHrgcOZFmDnED-39" value="5、F2与F1不共用RDNS1&lt;br&gt;（省略中间基础设施）&lt;br&gt;请求到达ADNS" style="edgeLabel;html=1;align=center;verticalAlign=middle;resizable=0;points=[];" vertex="1" connectable="0" parent="QbVw48FyHrgcOZFmDnED-38">
          <mxGeometry x="0.0595" y="18" relative="1" as="geometry">
            <mxPoint x="-61" y="-22" as="offset" />
          </mxGeometry>
        </mxCell>
        <mxCell id="QbVw48FyHrgcOZFmDnED-56" style="rounded=0;orthogonalLoop=1;jettySize=auto;html=1;exitX=0;exitY=0.5;exitDx=0;exitDy=0;entryX=1;entryY=1;entryDx=0;entryDy=0;dashed=1;" edge="1" parent="1" source="QbVw48FyHrgcOZFmDnED-40" target="QbVw48FyHrgcOZFmDnED-31">
          <mxGeometry relative="1" as="geometry" />
        </mxCell>
        <mxCell id="QbVw48FyHrgcOZFmDnED-57" value="7、返回记录2，不来自RDNS1i" style="edgeLabel;html=1;align=center;verticalAlign=middle;resizable=0;points=[];" vertex="1" connectable="0" parent="QbVw48FyHrgcOZFmDnED-56">
          <mxGeometry x="0.1072" y="-2" relative="1" as="geometry">
            <mxPoint x="-17" y="16" as="offset" />
          </mxGeometry>
        </mxCell>
        <mxCell id="QbVw48FyHrgcOZFmDnED-40" value="F2&lt;br&gt;（FDNS）" style="ellipse;whiteSpace=wrap;html=1;aspect=fixed;" vertex="1" parent="1">
          <mxGeometry x="960" y="430" width="80" height="80" as="geometry" />
        </mxCell>
        <mxCell id="QbVw48FyHrgcOZFmDnED-43" value="" style="shape=curlyBracket;whiteSpace=wrap;html=1;rounded=1;labelPosition=left;verticalLabelPosition=middle;align=right;verticalAlign=middle;" vertex="1" parent="1">
          <mxGeometry x="1070" y="220" width="20" height="120" as="geometry" />
        </mxCell>
        <mxCell id="QbVw48FyHrgcOZFmDnED-44" style="rounded=0;orthogonalLoop=1;jettySize=auto;html=1;exitX=0.5;exitY=0.667;exitDx=0;exitDy=0;exitPerimeter=0;entryX=0;entryY=0.5;entryDx=0;entryDy=0;" edge="1" parent="1" source="QbVw48FyHrgcOZFmDnED-45" target="QbVw48FyHrgcOZFmDnED-50">
          <mxGeometry relative="1" as="geometry" />
        </mxCell>
        <mxCell id="QbVw48FyHrgcOZFmDnED-45" value="" style="shape=curlyBracket;whiteSpace=wrap;html=1;rounded=1;flipH=1;labelPosition=right;verticalLabelPosition=middle;align=left;verticalAlign=middle;" vertex="1" parent="1">
          <mxGeometry x="1165" y="220" width="20" height="120" as="geometry" />
        </mxCell>
        <mxCell id="QbVw48FyHrgcOZFmDnED-46" value="+" style="text;html=1;align=center;verticalAlign=middle;resizable=0;points=[];autosize=1;strokeColor=none;fillColor=none;" vertex="1" parent="1">
          <mxGeometry x="1166" y="209" width="30" height="30" as="geometry" />
        </mxCell>
        <mxCell id="QbVw48FyHrgcOZFmDnED-47" value="RDNS1i" style="ellipse;whiteSpace=wrap;html=1;aspect=fixed;" vertex="1" parent="1">
          <mxGeometry x="1090" y="240" width="80" height="80" as="geometry" />
        </mxCell>
        <mxCell id="QbVw48FyHrgcOZFmDnED-48" style="rounded=0;orthogonalLoop=1;jettySize=auto;html=1;exitX=0;exitY=0;exitDx=0;exitDy=0;entryX=0.6;entryY=0.308;entryDx=0;entryDy=0;entryPerimeter=0;" edge="1" parent="1" source="QbVw48FyHrgcOZFmDnED-50" target="QbVw48FyHrgcOZFmDnED-45">
          <mxGeometry relative="1" as="geometry">
            <mxPoint x="1260" y="270" as="targetPoint" />
          </mxGeometry>
        </mxCell>
        <mxCell id="QbVw48FyHrgcOZFmDnED-49" value="2、返回特定记录1" style="edgeLabel;html=1;align=center;verticalAlign=middle;resizable=0;points=[];" vertex="1" connectable="0" parent="QbVw48FyHrgcOZFmDnED-48">
          <mxGeometry x="-0.0677" y="1" relative="1" as="geometry">
            <mxPoint as="offset" />
          </mxGeometry>
        </mxCell>
        <mxCell id="QbVw48FyHrgcOZFmDnED-53" style="edgeStyle=orthogonalEdgeStyle;rounded=0;orthogonalLoop=1;jettySize=auto;html=1;exitX=1;exitY=1;exitDx=0;exitDy=0;curved=1;entryX=1;entryY=1;entryDx=0;entryDy=0;dashed=1;" edge="1" parent="1" source="QbVw48FyHrgcOZFmDnED-50" target="QbVw48FyHrgcOZFmDnED-40">
          <mxGeometry relative="1" as="geometry">
            <mxPoint x="1010" y="520" as="targetPoint" />
            <Array as="points">
              <mxPoint x="1348" y="498" />
            </Array>
          </mxGeometry>
        </mxCell>
        <mxCell id="QbVw48FyHrgcOZFmDnED-55" value="6、返回记录2" style="edgeLabel;html=1;align=center;verticalAlign=middle;resizable=0;points=[];" vertex="1" connectable="0" parent="QbVw48FyHrgcOZFmDnED-53">
          <mxGeometry x="-0.0439" y="-30" relative="1" as="geometry">
            <mxPoint y="12" as="offset" />
          </mxGeometry>
        </mxCell>
        <mxCell id="QbVw48FyHrgcOZFmDnED-50" value="ADNS" style="ellipse;whiteSpace=wrap;html=1;aspect=fixed;" vertex="1" parent="1">
          <mxGeometry x="1280" y="300" width="80" height="80" as="geometry" />
        </mxCell>
        <mxCell id="QbVw48FyHrgcOZFmDnED-51" value="缓存&lt;br&gt;特定记录1" style="rounded=0;whiteSpace=wrap;html=1;" vertex="1" parent="1">
          <mxGeometry x="1091" y="230" width="75" height="40" as="geometry" />
        </mxCell>
        <mxCell id="QbVw48FyHrgcOZFmDnED-52" value="3、路径上的RDNSi缓存中均有记录1" style="text;html=1;align=center;verticalAlign=middle;resizable=0;points=[];autosize=1;strokeColor=none;fillColor=none;" vertex="1" parent="1">
          <mxGeometry x="1100" y="190" width="220" height="30" as="geometry" />
        </mxCell>
      </root>
    </mxGraphModel>
  </diagram>
</mxfile>
